<svg width="460" height="47" viewBox="0 0 460 47" fill="none" xmlns="http://www.w3.org/2000/svg">
<path fill-rule="evenodd" clip-rule="evenodd" d="M175 21.5L167.359 25.5172L168.818 17.0086L162.636 10.9828L171.179 9.74139L175 2L178.821 9.74139L187.364 10.9828L181.182 17.0086L182.641 25.5172L175 21.5Z" fill="#EFC4DC"/>
<path fill-rule="evenodd" clip-rule="evenodd" d="M179.977 22.6033L178.645 14.8342L184.289 9.33201L176.489 8.1985L173 1.12988L169.511 8.1985L161.711 9.33201L167.355 14.8342L166.023 22.6033L173 18.9352L179.977 22.6033Z" stroke="#423D76"/>
<path fill-rule="evenodd" clip-rule="evenodd" d="M203 21.5L195.359 25.5172L196.818 17.0086L190.636 10.9828L199.179 9.74139L203 2L206.821 9.74139L215.364 10.9828L209.182 17.0086L210.641 25.5172L203 21.5Z" fill="#EFC4DC"/>
<path fill-rule="evenodd" clip-rule="evenodd" d="M207.977 22.6033L206.645 14.8342L212.289 9.33201L204.489 8.1985L201 1.12988L197.511 8.1985L189.711 9.33201L195.355 14.8342L194.023 22.6033L201 18.9352L207.977 22.6033Z" stroke="#423D76"/>
<path fill-rule="evenodd" clip-rule="evenodd" d="M231 21.5L223.359 25.5172L224.818 17.0086L218.636 10.9828L227.179 9.74139L231 2L234.821 9.74139L243.364 10.9828L237.182 17.0086L238.641 25.5172L231 21.5Z" fill="#EFC4DC"/>
<path fill-rule="evenodd" clip-rule="evenodd" d="M235.977 22.6033L234.645 14.8342L240.289 9.33201L232.489 8.1985L229 1.12988L225.511 8.1985L217.711 9.33201L223.355 14.8342L222.023 22.6033L229 18.9352L235.977 22.6033Z" stroke="#423D76"/>
<path fill-rule="evenodd" clip-rule="evenodd" d="M259 21.5L251.359 25.5172L252.818 17.0086L246.636 10.9828L255.179 9.74139L259 2L262.821 9.74139L271.364 10.9828L265.182 17.0086L266.641 25.5172L259 21.5Z" fill="#EFC4DC"/>
<path fill-rule="evenodd" clip-rule="evenodd" d="M263.977 22.6033L262.645 14.8342L268.289 9.33201L260.489 8.1985L257 1.12988L253.511 8.1985L245.711 9.33201L251.355 14.8342L250.023 22.6033L257 18.9352L263.977 22.6033Z" stroke="#423D76"/>
<path fill-rule="evenodd" clip-rule="evenodd" d="M287 21.5L279.359 25.5172L280.818 17.0086L274.636 10.9828L283.179 9.74139L287 2V21.5Z" fill="#EFC4DC"/>
<path fill-rule="evenodd" clip-rule="evenodd" d="M291.977 22.6033L290.645 14.8342L296.289 9.33201L288.489 8.1985L285 1.12988L281.511 8.1985L273.711 9.33201L279.355 14.8342L278.023 22.6033L285 18.9352L291.977 22.6033Z" stroke="#423D76"/>
</svg>
